# Blender v2.80 (sub 75) OBJ File: ''
# www.blender.org
mtllib plane.mtl
o Plane
v -20.000000 1.000000 20.000000
v 20.000000 1.000000 20.000000
v -20.000000 1.000000 -20.000000
v 20.000000 1.000000 -20.000000
v -20.000000 2.000000 20.000000
v 20.000000 2.000000 20.000000
v -20.000000 2.000000 -20.000000
v 20.000000 2.000000 -20.000000
vt 0.000000 1.000000
vt 1.000000 0.000000
vt 0.000000 0.000000
vt 1.000000 0.000000
vt 0.000000 1.000000
vt 0.000000 0.000000
vt 1.000000 1.000000
vt 1.000000 1.000000
vn 0.0000 -1.0000 0.0000
vn 0.0000 1.0000 0.0000
vn -1.0000 0.0000 0.0000
vn 0.0000 0.0000 -1.0000
vn 0.0000 0.0000 1.0000
vn 1.0000 0.0000 0.0000
usemtl Material.003
s off
f 3/1/1 2/2/1 1/3/1
f 6/4/2 7/5/2 5/6/2
f 1/3/3 7/5/3 3/1/3
f 3/1/4 8/7/4 4/8/4
f 2/2/5 5/6/5 1/3/5
f 4/8/6 6/4/6 2/2/6
f 3/1/1 4/8/1 2/2/1
f 6/4/2 8/7/2 7/5/2
f 1/3/3 5/6/3 7/5/3
f 3/1/4 7/5/4 8/7/4
f 2/2/5 6/4/5 5/6/5
f 4/8/6 8/7/6 6/4/6
