# Blender v2.80 (sub 75) OBJ File: ''
# www.blender.org
mtllib rock.mtl
o Cube_Cube.001
v -0.500000 0.042181 0.500000
v -0.500000 0.042181 -0.500000
v -0.548137 -0.005956 0.385619
v -0.385616 -0.005955 -0.548130
v 0.000000 0.060766 0.720488
v -0.548136 -0.005955 -0.385618
v -0.385616 -0.005955 0.548130
v -0.674328 0.083361 0.292590
v -0.456264 0.246711 -0.674645
v -0.292603 0.083345 -0.674350
v 0.292603 0.083345 0.674350
v -0.426596 0.113761 0.620258
v 0.148493 0.065083 0.707904
v -0.426596 0.113761 -0.620258
v -0.544045 0.146860 0.544045
v -0.537585 0.152854 0.554388
v -0.651024 0.096465 0.350338
v -0.613751 0.102976 0.422898
v 0.056140 1.337410 0.148548
v -0.365211 1.062698 0.486238
v 0.000000 0.023255 0.689520
v 0.000000 0.006806 -0.675940
v -0.355894 -0.014505 0.556682
v -0.583763 -0.041202 0.262377
v -0.267652 -0.019468 -0.599572
v 0.284934 0.051745 0.651367
v -0.271103 -0.005249 0.609914
v -0.583328 -0.041147 0.263280
v -0.321130 -0.024505 -0.566684
v -0.393150 -0.018651 0.526730
v -0.505562 -0.031597 0.400185
v -0.400994 -0.031870 -0.504449
v -0.491784 -0.039895 -0.404900
v -0.141558 0.008548 0.662656
v 0.145166 0.037964 0.686199
v 0.404441 0.049038 -0.581263
v -0.139642 -0.007071 -0.650155
v -0.618750 -0.046294 0.134827
v -0.410243 0.239342 -0.696298
v -0.300452 0.137437 -0.700434
v -0.512715 0.396985 -0.678833
v -0.464790 0.311183 -0.689628
v -0.193659 0.070806 -0.697387
v 0.613453 1.020904 -0.358085
v 0.150028 1.275589 -0.378802
v 0.000000 0.010218 -0.678757
v 0.413272 0.074838 -0.596807
v -0.146441 0.048355 -0.694515
v 0.325552 0.040573 -0.618672
v 0.021517 0.008998 -0.675487
v 0.260805 0.219762 0.756337
v 0.303333 0.157294 0.710009
v 0.355846 0.097701 0.648819
v 0.735635 0.958863 -0.087150
v 0.508363 1.089609 0.206551
v 0.399168 0.062674 0.595130
v 0.000000 0.077366 0.729299
v 0.197474 0.214900 0.773664
v -0.073071 0.062890 0.714296
v -0.304934 0.086144 0.669372
v -0.440674 0.176845 0.646064
v 0.156307 0.172944 0.763900
v -0.480110 0.220248 0.639954
v -0.327118 0.782548 0.692009
v -0.291730 0.079747 0.671734
v -0.147177 0.054356 0.699318
v 0.202712 0.460886 0.784243
v 0.232516 0.279231 0.783086
v 0.495656 0.059089 -0.516237
v 0.625345 0.384863 -0.494516
v 0.510930 0.139607 -0.566672
v 0.707365 0.088634 0.150694
v 0.795411 0.494486 -0.066753
v -0.540184 0.137685 -0.540184
v -0.556708 -0.014527 -0.355820
v -0.675359 0.085497 0.292901
v -0.540105 0.268534 -0.614703
v -0.539493 0.153526 -0.553255
v -0.552803 0.001792 -0.388270
v -0.674765 0.083123 0.290714
v -0.677123 0.094019 0.298563
v -0.684705 0.658914 0.023965
v -0.639179 -0.020755 0.137958
v -0.566377 -0.045976 -0.280545
v -0.624437 -0.047706 0.065570
v -0.546488 0.401519 -0.652012
v -0.564363 0.580949 -0.647292
v -0.558643 0.536352 -0.656056
vt 0.128347 0.558852
vt 0.379585 0.109802
vt 0.534091 0.381770
vt 0.406250 0.797750
vt 0.422707 0.812500
vt 0.406250 0.812500
vt 0.487316 0.828381
vt 0.406250 0.940376
vt 0.403635 0.906250
vt 0.156250 0.744498
vt 0.163784 0.750000
vt 0.156250 0.750000
vt 0.125000 0.687742
vt 0.136112 0.718750
vt 0.125000 0.718750
vt 0.421078 0.968750
vt 0.406250 0.968750
vt 0.398335 0.812500
vt 0.393597 0.783829
vt 0.399640 0.843750
vt 0.406250 0.875000
vt 0.397299 0.875000
vt 0.406250 0.843750
vt 0.392543 0.448768
vt 0.396090 0.468750
vt 0.389355 0.468750
vt 0.406250 0.252221
vt 0.437500 0.281250
vt 0.406250 0.281250
vt 0.375000 0.211197
vt 0.377022 0.218750
vt 0.375000 0.218750
vt 0.464182 0.519914
vt 0.410780 0.658028
vt 0.381072 0.496363
vt 0.406250 0.997289
vt 0.403598 1.000000
vt 0.375000 1.000000
vt 0.375000 0.000000
vt 0.403433 0.031250
vt 0.375000 0.031250
vt 0.139708 0.531250
vt 0.125000 0.500000
vt 0.156250 0.511231
vt 0.125000 0.750000
vt 0.156250 0.500000
vt 0.172595 0.500000
vt 0.406250 0.312500
vt 0.380499 0.312500
vt 0.375000 0.297595
vt 0.406250 0.062500
vt 0.375055 0.062500
vt 0.375000 0.062258
vt 0.393374 0.375000
vt 0.394188 0.375000
vt 0.393708 0.379698
vt 0.388663 0.343750
vt 0.406250 0.333956
vt 0.402173 0.343750
vt 0.451369 0.281250
vt 0.437500 0.260675
vt 0.468750 0.272286
vt 0.418288 0.312500
vt 0.468750 0.264157
vt 0.498745 0.262757
vt 0.437500 0.291287
vt 0.633467 0.667377
vt 0.738824 0.652354
vt 0.635564 0.853344
vt 0.582076 0.605806
vt 0.604251 0.543715
vt 0.492212 0.611292
vt 0.392470 0.906250
vt 0.405349 0.937500
vt 0.384060 0.937500
vt 0.428624 0.977039
vt 0.375000 0.968750
vt 0.375000 0.961217
vt 0.406250 0.890378
vt 0.437500 0.823098
vt 0.449503 0.829516
vt 0.437500 0.835962
vt 0.429199 0.843750
vt 0.409708 0.875000
vt 0.508222 0.261137
vt 0.379099 0.093750
vt 0.385323 0.093750
vt 0.406250 0.062907
vt 0.408391 0.061433
vt 0.406250 0.049033
vt 0.406725 0.062500
vt 0.125000 0.538803
vt 0.125000 0.531250
vt 0.401091 0.250000
vt 0.375000 0.250000
vt 0.558159 0.906268
vt 0.405105 0.490821
vt 0.403598 0.000000
vt 0.375000 0.281250
vt 0.719368 0.550453
vn -0.9818 -0.0935 -0.1652
vn 0.4203 -0.4429 0.7920
vn -0.1937 -0.0380 0.9803
vn -0.3742 -0.7337 0.5671
vn -0.5690 -0.7322 0.3743
vn -0.4201 -0.4223 0.8032
vn 0.4031 -0.5829 0.7055
vn 0.0819 -0.6345 0.7686
vn 0.2464 -0.6238 0.7417
vn 0.4013 -0.5696 -0.7173
vn -0.5680 -0.4170 -0.7096
vn -0.7321 -0.5691 -0.3743
vn 0.9005 -0.3404 -0.2708
vn -0.5647 -0.5105 0.6485
vn -0.6481 -0.5651 0.5106
vn -0.5228 -0.6672 -0.5306
vn -0.5105 -0.6486 0.5645
vn -0.3742 -0.7337 -0.5671
vn -0.3759 -0.6030 -0.7036
vn -0.7038 -0.6028 0.3759
vn 0.0808 -0.6346 -0.7686
vn -0.0789 -0.6347 -0.7687
vn -0.2514 -0.6234 -0.7404
vn -0.6100 -0.2460 -0.7532
vn -0.2562 -0.4498 -0.8556
vn -0.6265 -0.0797 -0.7754
vn -0.4265 -0.4272 -0.7972
vn -0.4448 -0.2581 -0.8576
vn 0.2280 0.5963 0.7697
vn 0.4821 0.8759 -0.0168
vn 0.9154 0.1007 -0.3897
vn 0.8113 0.1295 0.5701
vn -0.2428 -0.6084 0.7555
vn -0.8789 0.1990 0.4336
vn -0.5680 -0.4170 0.7096
vn -0.3744 -0.5692 0.7320
vn -0.0838 -0.6289 0.7729
vn 0.2733 -0.2835 0.9192
vn 0.2621 -0.4595 0.8486
vn 0.0881 -0.4670 0.8799
vn -0.0881 -0.4670 0.8799
vn 0.5195 -0.5644 -0.6415
vn 0.1585 0.2099 -0.9648
vn 0.1011 -0.9948 0.0120
vn -0.7740 -0.6285 0.0764
vn -0.6430 0.7390 -0.2011
vn -0.7573 -0.6084 0.2373
vn -0.7919 -0.4431 0.4201
vn -0.8556 -0.4499 0.2561
vn -0.5690 -0.7322 -0.3743
vn -0.5647 -0.5105 -0.6485
vn -0.6481 -0.5651 -0.5106
vn -0.9818 -0.0936 -0.1651
vn -0.1938 -0.0380 0.9803
vn 0.4129 -0.5991 0.6860
vn 0.0838 -0.6289 0.7729
vn 0.2523 -0.6085 0.7524
vn -0.6015 -0.3790 -0.7033
vn -0.5105 -0.5652 0.6480
vn -0.6525 -0.5103 0.5603
vn -0.5650 -0.6481 -0.5106
vn -0.5105 -0.6486 -0.5645
vn -0.5650 -0.6481 0.5106
vn -0.5161 -0.6748 0.5275
vn -0.4156 -0.5695 -0.7092
vn -0.7154 -0.5894 0.3753
vn -0.7093 -0.5694 0.4155
vn -0.6863 -0.5988 0.4128
vn -0.0805 -0.6288 -0.7734
vn -0.2363 -0.6184 -0.7495
vn -0.2523 -0.6085 -0.7524
vn -0.6054 -0.2553 -0.7539
vn -0.6234 -0.2388 -0.7446
vn -0.4203 -0.4429 -0.7920
vn -0.4404 -0.4224 -0.7923
vn -0.2508 -0.6235 0.7405
vn -0.5683 -0.4164 0.7097
vn -0.3778 -0.5991 0.7059
vn -0.4129 -0.5991 0.6860
vn -0.4149 -0.5773 0.7032
vn -0.0808 -0.6312 0.7714
vn -0.0836 -0.6344 0.7685
vn 0.2562 -0.4498 0.8556
vn 0.2642 -0.4520 0.8520
vn 0.2671 -0.4592 0.8472
vn 0.0886 -0.4640 0.8814
vn 0.5461 -0.5166 -0.6594
vn 0.1010 -0.9948 0.0120
vn -0.7461 -0.6250 0.2296
vn -0.7526 -0.6083 0.2522
vn -0.5706 -0.7291 -0.3779
vn -0.5105 -0.5652 -0.6480
vn -0.6939 -0.5071 -0.5112
usemtl Material.001
s off
f 84/1/1 85/2/1 82/3/1
f 53/4/2 52/5/2 11/6/2
f 67/7/3 60/8/3 66/9/3
f 30/10/4 23/11/4 7/12/4
f 28/13/5 31/14/5 3/15/5
f 60/8/6 61/16/6 12/17/6
f 53/4/7 26/18/7 56/19/7
f 35/20/8 5/21/8 21/22/8
f 26/18/9 13/23/9 35/20/9
f 49/24/10 47/25/10 36/26/10
f 78/27/11 9/28/11 14/29/11
f 75/30/12 79/31/12 6/32/12
f 70/33/13 72/34/13 69/35/13
f 16/36/14 15/37/14 1/38/14
f 1/39/15 18/40/15 3/41/15
f 33/42/16 2/43/16 32/44/16
f 30/10/17 7/12/17 1/45/17
f 4/46/18 29/47/18 32/44/18
f 10/48/19 25/49/19 29/50/19
f 8/51/20 24/52/20 28/53/20
f 22/54/21 46/55/21 50/56/21
f 37/57/22 46/55/22 22/54/22
f 43/58/23 48/59/23 37/57/23
f 42/60/24 77/61/24 41/62/24
f 10/48/25 40/63/25 43/58/25
f 86/64/26 88/65/26 41/62/26
f 40/63/27 14/29/27 39/66/27
f 9/28/28 42/60/28 39/66/28
f 55/67/29 19/68/29 20/69/29
f 55/67/30 54/70/30 44/71/30
f 44/71/31 73/72/31 70/33/31
f 53/4/32 56/19/32 67/7/32
f 34/73/33 65/74/33 27/75/33
f 16/36/34 63/76/34 82/3/34
f 61/16/35 16/36/35 12/17/35
f 12/17/36 7/77/36 23/78/36
f 59/79/37 66/9/37 34/73/37
f 51/80/38 68/81/38 58/82/38
f 62/83/39 13/23/39 52/5/39
f 13/23/40 57/84/40 5/21/40
f 5/21/41 57/84/41 59/79/41
f 47/25/42 69/35/42 36/26/42
f 70/33/43 42/60/43 87/85/43
f 72/34/44 34/73/44 85/2/44
f 38/86/45 83/87/45 85/2/45
f 82/3/46 20/69/46 19/68/46
f 83/87/47 24/52/47 80/88/47
f 81/89/48 8/51/48 17/90/48
f 8/51/49 76/91/49 80/88/49
f 33/42/50 75/92/50 6/93/50
f 74/94/51 78/27/51 14/29/51
f 79/31/52 2/95/52 6/32/52
f 85/2/1 83/87/1 82/3/1
f 83/87/1 80/88/1 81/89/1
f 82/3/1 83/87/1 81/89/1
f 80/88/53 76/91/53 81/89/53
f 82/3/1 87/85/1 88/65/1
f 88/65/1 86/64/1 82/3/1
f 86/64/1 77/61/1 82/3/1
f 77/61/1 78/27/1 74/94/1
f 82/3/1 77/61/1 74/94/1
f 74/94/1 79/31/1 82/3/1
f 79/31/1 75/30/1 82/3/1
f 75/30/1 84/1/1 82/3/1
f 62/83/3 58/82/3 67/7/3
f 58/82/54 68/81/54 67/7/54
f 67/7/3 64/96/3 60/8/3
f 62/83/54 67/7/54 57/84/54
f 64/96/3 63/76/3 61/16/3
f 61/16/3 60/8/3 64/96/3
f 60/8/3 65/74/3 66/9/3
f 66/9/3 59/79/3 67/7/3
f 59/79/3 57/84/3 67/7/3
f 53/4/55 11/6/55 26/18/55
f 35/20/56 13/23/56 5/21/56
f 26/18/57 11/6/57 13/23/57
f 78/27/58 77/61/58 9/28/58
f 69/35/13 71/97/13 70/33/13
f 70/33/13 73/72/13 72/34/13
f 1/38/59 7/77/59 12/17/59
f 12/17/14 16/36/14 1/38/14
f 1/39/60 15/98/60 18/40/60
f 6/93/61 2/43/61 33/42/61
f 2/43/62 4/46/62 32/44/62
f 1/45/63 3/15/63 31/14/63
f 31/14/64 30/10/64 1/45/64
f 29/50/19 4/99/19 10/48/19
f 4/99/65 14/29/65 10/48/65
f 28/53/66 3/41/66 17/90/66
f 3/41/67 18/40/67 17/90/67
f 17/90/68 8/51/68 28/53/68
f 37/57/69 48/59/69 46/55/69
f 37/57/70 25/49/70 43/58/70
f 25/49/71 10/48/71 43/58/71
f 9/28/72 77/61/72 42/60/72
f 77/61/73 86/64/73 41/62/73
f 10/48/74 14/29/74 40/63/74
f 14/29/75 9/28/75 39/66/75
f 20/69/29 64/96/29 55/67/29
f 64/96/29 67/7/29 55/67/29
f 44/71/30 45/100/30 55/67/30
f 45/100/30 19/68/30 55/67/30
f 44/71/31 54/70/31 73/72/31
f 56/19/32 72/34/32 67/7/32
f 72/34/32 73/72/32 67/7/32
f 73/72/32 54/70/32 55/67/32
f 55/67/32 67/7/32 73/72/32
f 67/7/32 68/81/32 51/80/32
f 52/5/32 67/7/32 51/80/32
f 52/5/32 53/4/32 67/7/32
f 34/73/76 66/9/76 65/74/76
f 20/69/34 82/3/34 64/96/34
f 82/3/34 81/89/34 17/90/34
f 64/96/34 82/3/34 63/76/34
f 17/90/34 18/40/34 82/3/34
f 18/40/34 15/98/34 82/3/34
f 15/98/34 16/36/34 82/3/34
f 61/16/77 63/76/77 16/36/77
f 23/78/78 27/75/78 60/8/78
f 27/75/79 65/74/79 60/8/79
f 60/8/80 12/17/80 23/78/80
f 34/73/81 21/22/81 59/79/81
f 21/22/82 5/21/82 59/79/82
f 13/23/83 11/6/83 52/5/83
f 52/5/84 51/80/84 62/83/84
f 51/80/85 58/82/85 62/83/85
f 13/23/86 62/83/86 57/84/86
f 47/25/87 71/97/87 69/35/87
f 50/56/43 46/55/43 48/59/43
f 48/59/43 43/58/43 50/56/43
f 43/58/43 40/63/43 70/33/43
f 50/56/43 43/58/43 70/33/43
f 40/63/43 39/66/43 70/33/43
f 39/66/43 42/60/43 70/33/43
f 42/60/43 41/62/43 87/85/43
f 41/62/43 88/65/43 87/85/43
f 87/85/43 45/100/43 70/33/43
f 45/100/43 44/71/43 70/33/43
f 70/33/43 71/97/43 47/25/43
f 47/25/43 49/24/43 70/33/43
f 49/24/43 50/56/43 70/33/43
f 84/1/44 33/42/44 85/2/44
f 33/42/44 32/44/44 50/56/44
f 85/2/44 33/42/44 50/56/44
f 32/44/44 29/47/44 37/57/44
f 29/47/44 25/49/44 37/57/44
f 37/57/44 22/54/44 50/56/44
f 32/44/44 37/57/44 50/56/44
f 50/56/44 49/24/44 72/34/44
f 49/24/44 36/26/44 69/35/44
f 69/35/44 72/34/44 49/24/44
f 72/34/44 56/19/44 21/22/44
f 21/22/44 56/19/44 35/20/44
f 56/19/44 26/18/44 35/20/44
f 21/22/44 34/73/44 72/34/44
f 34/73/44 27/75/44 31/14/44
f 27/75/44 23/78/44 30/10/44
f 31/14/44 27/75/44 30/10/44
f 31/14/44 28/13/44 85/2/44
f 28/13/88 24/52/88 38/86/88
f 85/2/44 28/13/44 38/86/44
f 50/56/44 72/34/44 85/2/44
f 85/2/44 34/73/44 31/14/44
f 19/68/46 45/100/46 82/3/46
f 45/100/46 87/85/46 82/3/46
f 38/86/89 24/52/89 83/87/89
f 24/52/90 8/51/90 80/88/90
f 81/89/48 76/91/48 8/51/48
f 33/42/91 84/1/91 75/92/91
f 4/99/92 2/95/92 14/29/92
f 2/95/51 74/94/51 14/29/51
f 79/31/93 74/94/93 2/95/93
